<?xml version="1.0" encoding="UTF-8"?>
<!DOCTYPE svg PUBLIC "-//W3C//DTD SVG 1.1//EN" "http://www.w3.org/Graphics/SVG/1.1/DTD/svg11.dtd">
<!-- Creator: CorelDRAW 2020 (64-Bit) -->
<svg xmlns="http://www.w3.org/2000/svg" xml:space="preserve" width="8.5in" height="11in" version="1.1" style="shape-rendering:geometricPrecision; text-rendering:geometricPrecision; image-rendering:optimizeQuality; fill-rule:evenodd; clip-rule:evenodd"
viewBox="0 0 8500 11000"
 xmlns:xlink="http://www.w3.org/1999/xlink"
 xmlns:xodm="http://www.corel.com/coreldraw/odm/2003">
 <defs>
  <style type="text/css">
   <![CDATA[
    .fil5 {fill:#24B2E4}
    .fil4 {fill:#2E95C9}
    .fil3 {fill:#2477B6}
    .fil2 {fill:#2C5AA0}
    .fil1 {fill:#364B95}
    .fil0 {fill:url(#id0);fill-rule:nonzero}
   ]]>
  </style>
  <linearGradient id="id0" gradientUnits="userSpaceOnUse" x1="3149.43" y1="5635.59" x2="7771.94" y2="5635.59">
   <stop offset="0" style="stop-opacity:1; stop-color:#2B6FB5"/>
   <stop offset="0.870588" style="stop-opacity:1; stop-color:#7DC5ED"/>
   <stop offset="0.988235" style="stop-opacity:1; stop-color:#7DC5ED"/>
   <stop offset="1" style="stop-opacity:1; stop-color:#7DC5ED"/>
  </linearGradient>
 </defs>
 <g id="Layer_x0020_1">
  <metadata id="CorelCorpID_0Corel-Layer"/>
  <path class="fil0" d="M3395.11 6027.9l147.19 0 246.79 -709.92 -116.2 0 -203.63 611.98 -205.28 -611.98 -114.54 0 245.68 709.92zm968.32 -244.57l0 0 0 -170.98c0,-99.6 -76.36,-154.37 -183.7,-154.37l-131.69 0c-107.35,0 -183.7,54.78 -183.7,154.37l0 261.17c0,99.6 76.36,154.38 183.7,154.38l315.39 0 0 -82.44 -353.02 0c-28.22,0 -37.63,-18.26 -37.63,-47.59l0 -114.54 390.65 0zm-108.45 -83l0 0 -282.2 0 0 -112.88c0,-22.13 9.41,-47.03 37.63,-47.03l206.94 0c28.22,0 37.63,24.9 37.63,47.03l0 112.88zm258.95 327.57l0 0 108.45 0 0 -784.62 -108.45 0 0 784.62zm760.83 -415.55l0 0c0,-99.6 -65.29,-154.37 -171.53,-154.37l-158.81 0c-106.24,0 -172.09,54.78 -172.09,154.37l0 261.17c0,99.6 65.85,154.38 172.09,154.38l158.81 0c106.24,0 171.53,-54.78 171.53,-154.38l0 -261.17zm-393.97 275.01l0 0 0 -288.84c0,-42.06 12.17,-58.1 48.69,-58.1l188.69 0c36.52,0 48.14,16.04 48.14,58.1l0 288.84c0,41.5 -11.62,58.1 -48.14,58.1l-188.69 0c-36.52,0 -48.69,-16.6 -48.69,-58.1zm631.35 0l0 0 0 -288.84c0,-42.06 11.62,-58.1 48.14,-58.1l272.79 0 0 -82.44 -256.19 0c-107.35,0 -173.19,54.78 -173.19,154.37l0 261.17c0,99.6 65.85,154.38 173.19,154.38l256.19 0 0 -82.44 -272.79 0c-36.52,0 -48.14,-16.6 -48.14,-58.1zm460.93 140.54l0 0 107.9 0 0 -569.93 -107.9 0 0 569.93zm-11.07 -665.65l0 0 130.03 0 0 -118.97 -130.03 0 0 118.97zm621.94 178.17l0 0 0 -82.44 -168.76 0 0 -139.99 -76.36 0 -32.09 139.99 -85.77 0 0 82.44 85.77 0 0 332c0,96.28 54.78,155.48 180.39,155.48l96.83 0 0 -82.44 -120.63 0c-41.5,0 -48.14,-21.58 -48.14,-61.42l0 -343.61 168.76 0zm107.35 333.1l0 0c0,99.6 65.3,154.38 172.64,154.38l33.2 0c83.56,0 143.87,-2.21 169.87,-65.29l0 65.29 107.35 0 0 -415.55c0,-99.6 -76.36,-154.37 -183.71,-154.37l-241.8 0 0 82.44 280.54 0c27.67,0 37.63,18.26 37.63,47.03l0 95.72 -203.07 0c-107.35,0 -172.64,54.78 -172.64,154.93l0 35.41zm108.45 13.83l0 0 0 -63.63c0,-39.29 10.52,-55.89 42.61,-57.55l224.65 0 0 141.65c-3.32,26.56 -13.28,37.63 -43.16,37.63l-175.96 0c-36.52,0 -48.14,-16.6 -48.14,-58.1zm863.75 27.67l0 0c0,22.69 -11.62,30.43 -48.14,30.43l-291.05 0 0 82.44 275 0c107.35,0 172.64,-54.78 172.64,-154.38l0 -40.94c0,-68.61 -47.03,-90.19 -146.63,-113.99 -80.78,-19.37 -101.26,-26.56 -203.07,-51.46l0 -96.83c0,-22.13 11.62,-29.88 48.14,-29.88l282.2 0 0 -82.44 -266.15 0c-107.34,0 -172.64,54.78 -172.64,154.37l0 37.63c0,64.19 43.71,89.08 132.8,109.56 106.8,24.9 151.61,36.52 216.91,50.35l0 105.13z"/>
  <path class="fil1" d="M728.06 5018.07c722.09,-309.86 1087.3,423.3 1320.24,889.75 88.54,177.62 156.59,313.19 195.88,317.61 67.5,8.3 132.24,-294.37 240.7,-1228.94l85.77 7.19c-115.65,992.67 -209.16,1311.39 -337.53,1296.45 -87.98,-10.51 -163.79,-162.68 -263.39,-362.43 -219.12,-438.78 -562.74,-1127.13 -1203.49,-852.12l-38.18 -67.51z"/>
  <path class="fil2" d="M900.14 4963.85c686.68,-298.8 1022,350.81 1244.44,781.3 87.43,168.77 155.49,301.01 202.52,309.31 74.7,12.17 156.04,-257.3 299.35,-1107.76l85.22 10.51c-153.28,909.67 -266.15,1193.53 -400.61,1170.84 -90.74,-15.49 -167.11,-163.23 -265.04,-352.47 -208.05,-402.26 -521.24,-1008.72 -1127.13,-744.78l-38.73 -66.95z"/>
  <path class="fil3" d="M1056.18 4905.75c651.27,-287.18 957.26,282.2 1168.63,675.61 85.21,158.25 153.27,285.52 207.5,298.24 82.45,18.81 180.94,-216.35 359.11,-986.03l84.66 14.39c-192.56,828.88 -324.8,1076.78 -465.35,1044.13 -93.51,-21.58 -169.32,-163.23 -263.94,-339.19 -195.88,-364.64 -479.74,-892.52 -1051.88,-640.2l-38.73 -66.95z"/>
  <path class="fil4" d="M1238.22 4844.88c616.96,-276.66 894.18,216.35 1094.49,572.7 80.79,144.42 148.29,263.94 209.16,282.75 90.19,28.22 205.29,-171.53 421.09,-863.74l83.55 19.37c-234.61,751.97 -386.78,961.13 -533.96,915.2 -93.51,-29.33 -167.66,-161.57 -257.3,-320.93 -183.71,-327.57 -438.79,-780.75 -977.74,-538.39l-39.29 -66.95z"/>
  <path class="fil5" d="M1406.99 4784.02c583.76,-266.7 832.76,153.83 1020.89,471.99 75.25,127.27 139.99,236.83 205.28,263.38 99.05,40.94 231.85,-120.07 489.15,-740.91l80.79 25.45c-281.65,680.59 -453.73,847.15 -607,783.51 -91.3,-37.63 -162.13,-157.7 -244.57,-297.13 -171.54,-289.39 -397.85,-671.74 -904.7,-439.9l-39.84 -66.4z"/>
 </g>
</svg>
