<?xml version="1.0" encoding="UTF-8" standalone="no"?>
<svg
   xmlns:dc="http://purl.org/dc/elements/1.1/"
   xmlns:cc="http://creativecommons.org/ns#"
   xmlns:rdf="http://www.w3.org/1999/02/22-rdf-syntax-ns#"
   xmlns:svg="http://www.w3.org/2000/svg"
   xmlns="http://www.w3.org/2000/svg"
   xmlns:sodipodi="http://sodipodi.sourceforge.net/DTD/sodipodi-0.dtd"
   xmlns:inkscape="http://www.inkscape.org/namespaces/inkscape"
   inkscape:export-ydpi="114.3"
   inkscape:export-xdpi="114.3"
   inkscape:export-filename="/Users/mos1wa3/Project/eclipse-velocitas/velocitas-docs/static/favicons/apple-touch-icon-180x180.png"
   inkscape:version="1.0 (4035a4f, 2020-05-01)"
   sodipodi:docname="logo-only.svg"
   id="svg983"
   viewBox="0 0 1574.8032 1574.8032"
   style="clip-rule:evenodd;fill-rule:evenodd;image-rendering:optimizeQuality;shape-rendering:geometricPrecision;text-rendering:geometricPrecision"
   version="1.1"
   height="40mm"
   width="40mm"
   xml:space="preserve"><metadata
   id="metadata987"><rdf:RDF><cc:Work
       rdf:about=""><dc:format>image/svg+xml</dc:format><dc:type
         rdf:resource="http://purl.org/dc/dcmitype/StillImage" /><dc:title /></cc:Work></rdf:RDF></metadata><sodipodi:namedview
   inkscape:current-layer="Layer_x0020_1"
   inkscape:window-maximized="0"
   inkscape:window-y="28"
   inkscape:window-x="0"
   inkscape:cy="528"
   inkscape:cx="63.902042"
   inkscape:zoom="0.69602273"
   units="mm"
   showguides="false"
   showgrid="false"
   id="namedview985"
   inkscape:window-height="1052"
   inkscape:window-width="1920"
   inkscape:pageshadow="2"
   inkscape:pageopacity="0"
   guidetolerance="10"
   gridtolerance="10"
   objecttolerance="10"
   borderopacity="1"
   bordercolor="#666666"
   pagecolor="#ffffff"
   inkscape:document-rotation="0" />
 <defs
   id="defs967">
  <style
   id="style956"
   type="text/css">
   <![CDATA[
    .fil5 {fill:#24B2E4}
    .fil4 {fill:#2E95C9}
    .fil3 {fill:#2477B6}
    .fil2 {fill:#2C5AA0}
    .fil1 {fill:#364B95}
    .fil0 {fill:url(#id0);fill-rule:nonzero}
   ]]>
  </style>
  <linearGradient
   y2="5635.5898"
   x2="7771.9399"
   y1="5635.5898"
   x1="3149.4299"
   gradientUnits="userSpaceOnUse"
   id="id0">
   <stop
   id="stop958"
   style="stop-opacity:1; stop-color:#2B6FB5"
   offset="0" />
   <stop
   id="stop960"
   style="stop-opacity:1; stop-color:#7DC5ED"
   offset="0.870588" />
   <stop
   id="stop962"
   style="stop-opacity:1; stop-color:#7DC5ED"
   offset="0.988235" />
   <stop
   id="stop964"
   style="stop-opacity:1; stop-color:#7DC5ED"
   offset="1" />
  </linearGradient>
 </defs>
 <g
   transform="matrix(0.98370981,0,0,0.98370981,-626.40511,-4616.899)"
   id="Layer_x0020_1">
  <metadata
   id="CorelCorpID_0Corel-Layer" />






 <g
   id="g856"
   transform="matrix(0.73289067,0,0,0.73289067,-136.60537,1532.3786)"><path
     class="fil1"
     d="m 728.06,5018.07 c 722.09,-309.86 1087.3,423.3 1320.24,889.75 88.54,177.62 156.59,313.19 195.88,317.61 67.5,8.3 132.24,-294.37 240.7,-1228.94 l 85.77,7.19 C 2455,5996.35 2361.49,6315.07 2233.12,6300.13 2145.14,6289.62 2069.33,6137.45 1969.73,5937.7 1750.61,5498.92 1406.99,4810.57 766.24,5085.58 Z"
     id="path972" /><path
     class="fil2"
     d="m 900.14,4963.85 c 686.68,-298.8 1022,350.81 1244.44,781.3 87.43,168.77 155.49,301.01 202.52,309.31 74.7,12.17 156.04,-257.3 299.35,-1107.76 l 85.22,10.51 c -153.28,909.67 -266.15,1193.53 -400.61,1170.84 -90.74,-15.49 -167.11,-163.23 -265.04,-352.47 C 1857.97,5373.32 1544.78,4766.86 938.89,5030.8 l -38.73,-66.95 z"
     id="path974" /><path
     class="fil3"
     d="m 1056.18,4905.75 c 651.27,-287.18 957.26,282.2 1168.63,675.61 85.21,158.25 153.27,285.52 207.5,298.24 82.45,18.81 180.94,-216.35 359.11,-986.03 l 84.66,14.39 c -192.56,828.88 -324.8,1076.78 -465.35,1044.13 -93.51,-21.58 -169.32,-163.23 -263.94,-339.19 -195.88,-364.64 -479.74,-892.52 -1051.88,-640.2 z"
     id="path976" /><path
     class="fil4"
     d="m 1238.22,4844.88 c 616.96,-276.66 894.18,216.35 1094.49,572.7 80.79,144.42 148.29,263.94 209.16,282.75 90.19,28.22 205.29,-171.53 421.09,-863.74 l 83.55,19.37 c -234.61,751.97 -386.78,961.13 -533.96,915.2 -93.51,-29.33 -167.66,-161.57 -257.3,-320.93 -183.71,-327.57 -438.79,-780.75 -977.74,-538.39 l -39.29,-66.95 z"
     id="path978" /><path
     class="fil5"
     d="m 1406.99,4784.02 c 583.76,-266.7 832.76,153.83 1020.89,471.99 75.25,127.27 139.99,236.83 205.28,263.38 99.05,40.94 231.85,-120.07 489.15,-740.91 l 80.79,25.45 c -281.65,680.59 -453.73,847.15 -607,783.51 -91.3,-37.63 -162.13,-157.7 -244.57,-297.13 -171.54,-289.39 -397.85,-671.74 -904.7,-439.9 l -39.84,-66.4 z"
     id="path980" /></g></g>
</svg>
