<?xml version="1.0" encoding="UTF-8" standalone="no"?>
<svg
   xmlns:dc="http://purl.org/dc/elements/1.1/"
   xmlns:cc="http://creativecommons.org/ns#"
   xmlns:rdf="http://www.w3.org/1999/02/22-rdf-syntax-ns#"
   xmlns:svg="http://www.w3.org/2000/svg"
   xmlns="http://www.w3.org/2000/svg"
   xmlns:sodipodi="http://sodipodi.sourceforge.net/DTD/sodipodi-0.dtd"
   xmlns:inkscape="http://www.inkscape.org/namespaces/inkscape"
   inkscape:version="1.0 (4035a4f, 2020-05-01)"
   sodipodi:docname="logo.svg"
   id="svg983"
   viewBox="0 0 7086.6144 1574.8032"
   style="clip-rule:evenodd;fill-rule:evenodd;image-rendering:optimizeQuality;shape-rendering:geometricPrecision;text-rendering:geometricPrecision"
   version="1.1"
   height="40mm"
   width="180mm"
   xml:space="preserve"><metadata
   id="metadata987"><rdf:RDF><cc:Work
       rdf:about=""><dc:format>image/svg+xml</dc:format><dc:type
         rdf:resource="http://purl.org/dc/dcmitype/StillImage" /><dc:title></dc:title></cc:Work></rdf:RDF></metadata><sodipodi:namedview
   inkscape:current-layer="Layer_x0020_1"
   inkscape:window-maximized="0"
   inkscape:window-y="0"
   inkscape:window-x="0"
   inkscape:cy="528"
   inkscape:cx="408"
   inkscape:zoom="0.69602273"
   units="mm"
   showguides="false"
   showgrid="false"
   id="namedview985"
   inkscape:window-height="1080"
   inkscape:window-width="1920"
   inkscape:pageshadow="2"
   inkscape:pageopacity="0"
   guidetolerance="10"
   gridtolerance="10"
   objecttolerance="10"
   borderopacity="1"
   bordercolor="#666666"
   pagecolor="#ffffff" />
 <defs
   id="defs967">
  <style
   id="style956"
   type="text/css">
   <![CDATA[
    .fil5 {fill:#24B2E4}
    .fil4 {fill:#2E95C9}
    .fil3 {fill:#2477B6}
    .fil2 {fill:#2C5AA0}
    .fil1 {fill:#364B95}
    .fil0 {fill:url(#id0);fill-rule:nonzero}
   ]]>
  </style>
  <linearGradient
   y2="5635.5898"
   x2="7771.9399"
   y1="5635.5898"
   x1="3149.4299"
   gradientUnits="userSpaceOnUse"
   id="id0">
   <stop
   id="stop958"
   style="stop-opacity:1; stop-color:#2B6FB5"
   offset="0" />
   <stop
   id="stop960"
   style="stop-opacity:1; stop-color:#7DC5ED"
   offset="0.870588" />
   <stop
   id="stop962"
   style="stop-opacity:1; stop-color:#7DC5ED"
   offset="0.988235" />
   <stop
   id="stop964"
   style="stop-opacity:1; stop-color:#7DC5ED"
   offset="1" />
  </linearGradient>
 </defs>
 <g
   transform="matrix(0.98370981,0,0,0.98370981,-626.40511,-4616.899)"
   id="Layer_x0020_1">
  <metadata
   id="CorelCorpID_0Corel-Layer" />
  <path
   style="fill:url(#id0)"
   id="path970"
   d="m 3395.11,6027.9 h 147.19 l 246.79,-709.92 h -116.2 l -203.63,611.98 -205.28,-611.98 h -114.54 l 245.68,709.92 z m 968.32,-244.57 v 0 -170.98 c 0,-99.6 -76.36,-154.37 -183.7,-154.37 h -131.69 c -107.35,0 -183.7,54.78 -183.7,154.37 v 261.17 c 0,99.6 76.36,154.38 183.7,154.38 h 315.39 v -82.44 h -353.02 c -28.22,0 -37.63,-18.26 -37.63,-47.59 v -114.54 z m -108.45,-83 v 0 h -282.2 v -112.88 c 0,-22.13 9.41,-47.03 37.63,-47.03 h 206.94 c 28.22,0 37.63,24.9 37.63,47.03 z m 258.95,327.57 v 0 h 108.45 v -784.62 h -108.45 z m 760.83,-415.55 v 0 c 0,-99.6 -65.29,-154.37 -171.53,-154.37 h -158.81 c -106.24,0 -172.09,54.78 -172.09,154.37 v 261.17 c 0,99.6 65.85,154.38 172.09,154.38 h 158.81 c 106.24,0 171.53,-54.78 171.53,-154.38 z m -393.97,275.01 v 0 -288.84 c 0,-42.06 12.17,-58.1 48.69,-58.1 h 188.69 c 36.52,0 48.14,16.04 48.14,58.1 v 288.84 c 0,41.5 -11.62,58.1 -48.14,58.1 h -188.69 c -36.52,0 -48.69,-16.6 -48.69,-58.1 z m 631.35,0 v 0 -288.84 c 0,-42.06 11.62,-58.1 48.14,-58.1 h 272.79 v -82.44 h -256.19 c -107.35,0 -173.19,54.78 -173.19,154.37 v 261.17 c 0,99.6 65.85,154.38 173.19,154.38 h 256.19 v -82.44 h -272.79 c -36.52,0 -48.14,-16.6 -48.14,-58.1 z m 460.93,140.54 v 0 h 107.9 v -569.93 h -107.9 z M 5962,5362.25 v 0 h 130.03 V 5243.28 H 5962 Z m 621.94,178.17 v 0 -82.44 h -168.76 v -139.99 h -76.36 l -32.09,139.99 h -85.77 v 82.44 h 85.77 v 332 c 0,96.28 54.78,155.48 180.39,155.48 h 96.83 v -82.44 h -120.63 c -41.5,0 -48.14,-21.58 -48.14,-61.42 v -343.61 h 168.76 z m 107.35,333.1 v 0 c 0,99.6 65.3,154.38 172.64,154.38 h 33.2 c 83.56,0 143.87,-2.21 169.87,-65.29 v 65.29 h 107.35 v -415.55 c 0,-99.6 -76.36,-154.37 -183.71,-154.37 h -241.8 v 82.44 h 280.54 c 27.67,0 37.63,18.26 37.63,47.03 v 95.72 h -203.07 c -107.35,0 -172.64,54.78 -172.64,154.93 v 35.41 z m 108.45,13.83 v 0 -63.63 c 0,-39.29 10.52,-55.89 42.61,-57.55 H 7067 v 141.65 c -3.32,26.56 -13.28,37.63 -43.16,37.63 h -175.96 c -36.52,0 -48.14,-16.6 -48.14,-58.1 z m 863.75,27.67 v 0 c 0,22.69 -11.62,30.43 -48.14,30.43 H 7324.3 v 82.44 h 275 c 107.35,0 172.64,-54.78 172.64,-154.38 v -40.94 c 0,-68.61 -47.03,-90.19 -146.63,-113.99 -80.78,-19.37 -101.26,-26.56 -203.07,-51.46 v -96.83 c 0,-22.13 11.62,-29.88 48.14,-29.88 h 282.2 v -82.44 h -266.15 c -107.34,0 -172.64,54.78 -172.64,154.37 v 37.63 c 0,64.19 43.71,89.08 132.8,109.56 106.8,24.9 151.61,36.52 216.91,50.35 v 105.13 z"
   class="fil0" />
  <path
   id="path972"
   d="m 728.06,5018.07 c 722.09,-309.86 1087.3,423.3 1320.24,889.75 88.54,177.62 156.59,313.19 195.88,317.61 67.5,8.3 132.24,-294.37 240.7,-1228.94 l 85.77,7.19 C 2455,5996.35 2361.49,6315.07 2233.12,6300.13 2145.14,6289.62 2069.33,6137.45 1969.73,5937.7 1750.61,5498.92 1406.99,4810.57 766.24,5085.58 Z"
   class="fil1" />
  <path
   id="path974"
   d="m 900.14,4963.85 c 686.68,-298.8 1022,350.81 1244.44,781.3 87.43,168.77 155.49,301.01 202.52,309.31 74.7,12.17 156.04,-257.3 299.35,-1107.76 l 85.22,10.51 c -153.28,909.67 -266.15,1193.53 -400.61,1170.84 -90.74,-15.49 -167.11,-163.23 -265.04,-352.47 C 1857.97,5373.32 1544.78,4766.86 938.89,5030.8 l -38.73,-66.95 z"
   class="fil2" />
  <path
   id="path976"
   d="m 1056.18,4905.75 c 651.27,-287.18 957.26,282.2 1168.63,675.61 85.21,158.25 153.27,285.52 207.5,298.24 82.45,18.81 180.94,-216.35 359.11,-986.03 l 84.66,14.39 c -192.56,828.88 -324.8,1076.78 -465.35,1044.13 -93.51,-21.58 -169.32,-163.23 -263.94,-339.19 -195.88,-364.64 -479.74,-892.52 -1051.88,-640.2 z"
   class="fil3" />
  <path
   id="path978"
   d="m 1238.22,4844.88 c 616.96,-276.66 894.18,216.35 1094.49,572.7 80.79,144.42 148.29,263.94 209.16,282.75 90.19,28.22 205.29,-171.53 421.09,-863.74 l 83.55,19.37 c -234.61,751.97 -386.78,961.13 -533.96,915.2 -93.51,-29.33 -167.66,-161.57 -257.3,-320.93 -183.71,-327.57 -438.79,-780.75 -977.74,-538.39 l -39.29,-66.95 z"
   class="fil4" />
  <path
   id="path980"
   d="m 1406.99,4784.02 c 583.76,-266.7 832.76,153.83 1020.89,471.99 75.25,127.27 139.99,236.83 205.28,263.38 99.05,40.94 231.85,-120.07 489.15,-740.91 l 80.79,25.45 c -281.65,680.59 -453.73,847.15 -607,783.51 -91.3,-37.63 -162.13,-157.7 -244.57,-297.13 -171.54,-289.39 -397.85,-671.74 -904.7,-439.9 l -39.84,-66.4 z"
   class="fil5" />
 </g>
</svg>
